<svg width="20" height="20" viewBox="0 0 20 20" fill="none" xmlns="http://www.w3.org/2000/svg">
<g id="check-circle-1">
<path id="Shape" opacity="0.1" d="M10 0C4.47715 0 0 4.47715 0 10C0 15.5228 4.47715 20 10 20C15.5228 20 20 15.5228 20 10C19.9936 4.47982 15.5202 0.00642897 10 0Z" fill="white"/>
<path id="Path" d="M15.7722 6.83331L10.068 14.5741C9.93197 14.7546 9.72912 14.8729 9.50503 14.9024C9.28094 14.9318 9.05441 14.87 8.87634 14.7308L4.80301 11.4741C4.44356 11.1865 4.38536 10.6619 4.67301 10.3025C4.96066 9.94303 5.48523 9.88483 5.84468 10.1725L9.24134 12.89L14.4305 5.84748C14.6007 5.59214 14.8974 5.45096 15.2029 5.48001C15.5083 5.50906 15.7731 5.70362 15.8921 5.98646C16.0111 6.26929 15.965 6.59463 15.7722 6.83331Z" fill="white"/>
</g>
</svg>
